<svg width="398" height="73" viewBox="0 0 398 73" fill="none" xmlns="http://www.w3.org/2000/svg">
<g opacity="0.1">
<path d="M70.192 33.904V39.088C70.192 48.688 67.12 56.464 60.976 62.416C54.832 68.368 46.896 71.344 37.168 71.344C26.8 71.344 18.192 67.984 11.344 61.264C4.56 54.48 1.168 46.224 1.168 36.496C1.168 26.704 4.528 18.416 11.248 11.632C18.032 4.848 26.416 1.456 36.4 1.456C42.672 1.456 48.4 2.896 53.584 5.776C58.768 8.592 62.8 12.368 65.68 17.104L54.352 23.632C52.752 20.88 50.32 18.64 47.056 16.912C43.856 15.184 40.272 14.32 36.304 14.32C29.904 14.32 24.624 16.432 20.464 20.656C16.368 24.816 14.32 30.096 14.32 36.496C14.32 42.832 16.4 48.08 20.56 52.24C24.784 56.336 30.352 58.384 37.264 58.384C42.384 58.384 46.608 57.264 49.936 55.024C53.328 52.72 55.632 49.584 56.848 45.616H36.496V33.904H70.192ZM120.378 70L116.346 57.904H89.5615L85.5295 70H71.2255L94.7455 2.8H111.162L134.778 70H120.378ZM93.7855 45.52H112.218L103.002 18.064L93.7855 45.52ZM154.551 57.328H180.183V70H141.303V2.8H154.551V57.328ZM200.957 57.328H226.589V70H187.709V2.8H200.957V57.328ZM247.363 57.328H275.683V70H234.115V2.8H275.203V15.472H247.363V29.776H272.803V42.256H247.363V57.328ZM321.885 70L308.349 46.672H298.269V70H285.021V2.8H311.901C318.109 2.8 323.389 4.976 327.741 9.328C332.093 13.68 334.269 18.928 334.269 25.072C334.269 29.232 333.085 33.104 330.717 36.688C328.349 40.208 325.213 42.864 321.309 44.656L336.189 70H321.885ZM298.269 15.184V35.056H311.901C314.397 35.056 316.541 34.096 318.333 32.176C320.125 30.192 321.021 27.824 321.021 25.072C321.021 22.32 320.125 19.984 318.333 18.064C316.541 16.144 314.397 15.184 311.901 15.184H298.269ZM395.299 2.8L372.259 43.792V70H359.107V43.792L336.163 2.8H351.139L365.731 30.832L380.323 2.8H395.299Z" fill="white"/>
<path d="M70.192 33.904H71.192V32.904H70.192V33.904ZM60.976 62.416L60.2802 61.6978L60.976 62.416ZM11.344 61.264L10.6369 61.9711L10.6436 61.9777L11.344 61.264ZM11.248 11.632L10.5409 10.9249L10.5376 10.9282L11.248 11.632ZM53.584 5.776L53.0983 6.65019L53.1067 6.65472L53.584 5.776ZM65.68 17.104L66.1793 17.9704L67.0664 17.4592L66.5344 16.5844L65.68 17.104ZM54.352 23.632L53.4875 24.1346L53.9882 24.9958L54.8513 24.4984L54.352 23.632ZM47.056 16.912L46.5808 17.7919L46.5881 17.7958L47.056 16.912ZM20.464 20.656L19.7515 19.9543L19.7514 19.9544L20.464 20.656ZM20.56 52.24L19.8529 52.9471L19.8583 52.9525L19.8639 52.9579L20.56 52.24ZM49.936 55.024L50.4944 55.8536L50.4979 55.8512L49.936 55.024ZM56.848 45.616L57.8041 45.909L58.2004 44.616H56.848V45.616ZM36.496 45.616H35.496V46.616H36.496V45.616ZM36.496 33.904V32.904H35.496V33.904H36.496ZM69.192 33.904V39.088H71.192V33.904H69.192ZM69.192 39.088C69.192 48.4536 66.2051 55.958 60.2802 61.6978L61.6718 63.1342C68.0349 56.97 71.192 48.9224 71.192 39.088H69.192ZM60.2802 61.6978C54.3487 67.4439 46.6749 70.344 37.168 70.344V72.344C47.1171 72.344 55.3153 69.2921 61.6718 63.1342L60.2802 61.6978ZM37.168 70.344C27.0387 70.344 18.6895 67.0711 12.0444 60.5503L10.6436 61.9777C17.6945 68.8969 26.5613 72.344 37.168 72.344V70.344ZM12.0511 60.5569C5.45756 53.9633 2.168 45.9629 2.168 36.496H0.168C0.168 46.4851 3.66244 54.9967 10.6369 61.9711L12.0511 60.5569ZM2.168 36.496C2.168 26.9601 5.42915 18.9272 11.9585 12.3357L10.5376 10.9282C3.62685 17.9048 0.168 26.4479 0.168 36.496H2.168ZM11.9551 12.3391C18.5432 5.75097 26.6692 2.456 36.4 2.456V0.455996C26.1628 0.455996 17.5208 3.94502 10.5409 10.9249L11.9551 12.3391ZM36.4 2.456C42.5122 2.456 48.0715 3.85747 53.0984 6.65015L54.0696 4.90184C48.7285 1.93452 42.8318 0.455996 36.4 0.455996V2.456ZM53.1067 6.65472C58.1458 9.39204 62.0433 13.0483 64.8256 17.6236L66.5344 16.5844C63.5567 11.6877 59.3902 7.79196 54.0613 4.89727L53.1067 6.65472ZM65.1807 16.2376L53.8527 22.7656L54.8513 24.4984L66.1793 17.9704L65.1807 16.2376ZM55.2165 23.1294C53.5083 20.1913 50.9262 17.8294 47.5239 16.0282L46.5881 17.7958C49.7138 19.4506 51.9957 21.5687 53.4875 24.1346L55.2165 23.1294ZM47.5312 16.0321C44.1721 14.2182 40.4224 13.32 36.304 13.32V15.32C40.1216 15.32 43.5399 16.1498 46.5809 17.7919L47.5312 16.0321ZM36.304 13.32C29.6597 13.32 24.1154 15.5233 19.7515 19.9543L21.1765 21.3577C25.1326 17.3407 30.1483 15.32 36.304 15.32V13.32ZM19.7514 19.9544C15.4527 24.3203 13.32 29.8612 13.32 36.496H15.32C15.32 30.3308 17.2833 25.3117 21.1766 21.3576L19.7514 19.9544ZM13.32 36.496C13.32 43.0747 15.49 48.5842 19.8529 52.9471L21.2671 51.5329C17.31 47.5758 15.32 42.5893 15.32 36.496H13.32ZM19.8639 52.9579C24.3067 57.2661 30.1408 59.384 37.264 59.384V57.384C30.5632 57.384 25.2613 55.4059 21.2561 51.5221L19.8639 52.9579ZM37.264 59.384C42.5282 59.384 46.9611 58.2317 50.4944 55.8536L49.3776 54.1944C46.2549 56.2963 42.2398 57.384 37.264 57.384V59.384ZM50.4979 55.8512C54.0808 53.4176 56.5223 50.0919 57.8041 45.909L55.8919 45.323C54.7417 49.0761 52.5752 52.0224 49.3741 54.1968L50.4979 55.8512ZM56.848 44.616H36.496V46.616H56.848V44.616ZM37.496 45.616V33.904H35.496V45.616H37.496ZM36.496 34.904H70.192V32.904H36.496V34.904ZM120.378 70L119.429 70.3162L119.657 71H120.378V70ZM116.346 57.904L117.294 57.5878L117.066 56.904H116.346V57.904ZM89.5615 57.904V56.904H88.8407L88.6128 57.5878L89.5615 57.904ZM85.5295 70V71H86.2503L86.4782 70.3162L85.5295 70ZM71.2255 70L70.2816 69.6696L69.816 71H71.2255V70ZM94.7455 2.8V1.8H94.036L93.8016 2.46964L94.7455 2.8ZM111.161 2.8L112.105 2.46844L111.87 1.8H111.161V2.8ZM134.777 70V71H136.189L135.721 69.6684L134.777 70ZM93.7855 45.52L92.8375 45.2018L92.395 46.52H93.7855V45.52ZM112.217 45.52V46.52H113.608L113.166 45.2018L112.217 45.52ZM103.002 18.064L103.95 17.7458L103.002 14.9215L102.053 17.7458L103.002 18.064ZM121.326 69.6838L117.294 57.5878L115.397 58.2202L119.429 70.3162L121.326 69.6838ZM116.346 56.904H89.5615V58.904H116.346V56.904ZM88.6128 57.5878L84.5808 69.6838L86.4782 70.3162L90.5102 58.2202L88.6128 57.5878ZM85.5295 69H71.2255V71H85.5295V69ZM72.1694 70.3304L95.6894 3.13035L93.8016 2.46964L70.2816 69.6696L72.1694 70.3304ZM94.7455 3.8H111.161V1.8H94.7455V3.8ZM110.218 3.13155L133.834 70.3316L135.721 69.6684L112.105 2.46844L110.218 3.13155ZM134.777 69H120.378V71H134.777V69ZM93.7855 46.52H112.217V44.52H93.7855V46.52ZM113.166 45.2018L103.95 17.7458L102.053 18.3822L111.269 45.8382L113.166 45.2018ZM102.053 17.7458L92.8375 45.2018L94.7335 45.8382L103.95 18.3822L102.053 17.7458ZM154.551 57.328H153.551V58.328H154.551V57.328ZM180.182 57.328H181.182V56.328H180.182V57.328ZM180.182 70V71H181.182V70H180.182ZM141.303 70H140.303V71H141.303V70ZM141.303 2.8V1.8H140.303V2.8H141.303ZM154.551 2.8H155.551V1.8H154.551V2.8ZM154.551 58.328H180.182V56.328H154.551V58.328ZM179.182 57.328V70H181.182V57.328H179.182ZM180.182 69H141.303V71H180.182V69ZM142.303 70V2.8H140.303V70H142.303ZM141.303 3.8H154.551V1.8H141.303V3.8ZM153.551 2.8V57.328H155.551V2.8H153.551ZM200.957 57.328H199.957V58.328H200.957V57.328ZM226.589 57.328H227.589V56.328H226.589V57.328ZM226.589 70V71H227.589V70H226.589ZM187.709 70H186.709V71H187.709V70ZM187.709 2.8V1.8H186.709V2.8H187.709ZM200.957 2.8H201.957V1.8H200.957V2.8ZM200.957 58.328H226.589V56.328H200.957V58.328ZM225.589 57.328V70H227.589V57.328H225.589ZM226.589 69H187.709V71H226.589V69ZM188.709 70V2.8H186.709V70H188.709ZM187.709 3.8H200.957V1.8H187.709V3.8ZM199.957 2.8V57.328H201.957V2.8H199.957ZM247.363 57.328H246.363V58.328H247.363V57.328ZM275.683 57.328H276.683V56.328H275.683V57.328ZM275.683 70V71H276.683V70H275.683ZM234.115 70H233.115V71H234.115V70ZM234.115 2.8V1.8H233.115V2.8H234.115ZM275.203 2.8H276.203V1.8H275.203V2.8ZM275.203 15.472V16.472H276.203V15.472H275.203ZM247.363 15.472V14.472H246.363V15.472H247.363ZM247.363 29.776H246.363V30.776H247.363V29.776ZM272.803 29.776H273.803V28.776H272.803V29.776ZM272.803 42.256V43.256H273.803V42.256H272.803ZM247.363 42.256V41.256H246.363V42.256H247.363ZM247.363 58.328H275.683V56.328H247.363V58.328ZM274.683 57.328V70H276.683V57.328H274.683ZM275.683 69H234.115V71H275.683V69ZM235.115 70V2.8H233.115V70H235.115ZM234.115 3.8H275.203V1.8H234.115V3.8ZM274.203 2.8V15.472H276.203V2.8H274.203ZM275.203 14.472H247.363V16.472H275.203V14.472ZM246.363 15.472V29.776H248.363V15.472H246.363ZM247.363 30.776H272.803V28.776H247.363V30.776ZM271.803 29.776V42.256H273.803V29.776H271.803ZM272.803 41.256H247.363V43.256H272.803V41.256ZM246.363 42.256V57.328H248.363V42.256H246.363ZM321.885 70L321.02 70.5019L321.309 71H321.885V70ZM308.349 46.672L309.214 46.1701L308.925 45.672H308.349V46.672ZM298.269 46.672V45.672H297.269V46.672H298.269ZM298.269 70V71H299.269V70H298.269ZM285.021 70H284.021V71H285.021V70ZM285.021 2.8V1.8H284.021V2.8H285.021ZM327.741 9.328L328.448 8.62089V8.62089L327.741 9.328ZM330.717 36.688L331.547 37.2462L331.552 37.2393L330.717 36.688ZM321.309 44.656L320.892 43.7472L319.887 44.2086L320.447 45.1623L321.309 44.656ZM336.189 70V71H337.936L337.052 69.4937L336.189 70ZM298.269 15.184V14.184H297.269V15.184H298.269ZM298.269 35.056H297.269V36.056H298.269V35.056ZM318.333 32.176L319.064 32.8583L319.07 32.8523L319.075 32.8463L318.333 32.176ZM318.333 18.064L317.602 18.7463L318.333 18.064ZM322.75 69.4981L309.214 46.1701L307.484 47.1739L321.02 70.5019L322.75 69.4981ZM308.349 45.672H298.269V47.672H308.349V45.672ZM297.269 46.672V70H299.269V46.672H297.269ZM298.269 69H285.021V71H298.269V69ZM286.021 70V2.8H284.021V70H286.021ZM285.021 3.8H311.901V1.8H285.021V3.8ZM311.901 3.8C317.847 3.8 322.871 5.87246 327.034 10.0351L328.448 8.62089C323.907 4.07953 318.372 1.8 311.901 1.8V3.8ZM327.034 10.0351C331.199 14.1999 333.269 19.1937 333.269 25.072H335.269C335.269 18.6623 332.988 13.1601 328.448 8.62089L327.034 10.0351ZM333.269 25.072C333.269 29.0293 332.147 32.7106 329.883 36.1367L331.552 37.2393C334.024 33.4974 335.269 29.4347 335.269 25.072H333.269ZM329.888 36.1298C327.624 39.4952 324.631 42.0309 320.892 43.7472L321.726 45.5648C325.795 43.6971 329.075 40.9208 331.547 37.2462L329.888 36.1298ZM320.447 45.1623L335.327 70.5063L337.052 69.4937L322.172 44.1497L320.447 45.1623ZM336.189 69H321.885V71H336.189V69ZM297.269 15.184V35.056H299.269V15.184H297.269ZM298.269 36.056H311.901V34.056H298.269V36.056ZM311.901 36.056C314.69 36.056 317.094 34.9691 319.064 32.8583L317.602 31.4937C315.988 33.2229 314.104 34.056 311.901 34.056V36.056ZM319.075 32.8463C321.039 30.6726 322.021 28.0636 322.021 25.072H320.021C320.021 27.5844 319.212 29.7114 317.591 31.5057L319.075 32.8463ZM322.021 25.072C322.021 22.0801 321.038 19.4964 319.064 17.3817L317.602 18.7463C319.212 20.4716 320.021 22.5599 320.021 25.072H322.021ZM319.064 17.3817C317.094 15.2709 314.69 14.184 311.901 14.184V16.184C314.104 16.184 315.988 17.017 317.602 18.7463L319.064 17.3817ZM311.901 14.184H298.269V16.184H311.901V14.184ZM395.299 2.8L396.171 3.28997L397.008 1.8H395.299V2.8ZM372.259 43.792L371.387 43.302L371.259 43.5302V43.792H372.259ZM372.259 70V71H373.259V70H372.259ZM359.107 70H358.107V71H359.107V70ZM359.107 43.792H360.107V43.5312L359.98 43.3036L359.107 43.792ZM336.163 2.8V1.8H334.457L335.29 3.28841L336.163 2.8ZM351.139 2.8L352.026 2.33826L351.746 1.8H351.139V2.8ZM365.731 30.832L364.844 31.2937L365.731 32.9977L366.618 31.2937L365.731 30.832ZM380.323 2.8V1.8H379.716L379.436 2.33826L380.323 2.8ZM394.427 2.31002L371.387 43.302L373.131 44.282L396.171 3.28997L394.427 2.31002ZM371.259 43.792V70H373.259V43.792H371.259ZM372.259 69H359.107V71H372.259V69ZM360.107 70V43.792H358.107V70H360.107ZM359.98 43.3036L337.036 2.31158L335.29 3.28841L358.234 44.2804L359.98 43.3036ZM336.163 3.8H351.139V1.8H336.163V3.8ZM350.252 3.26173L364.844 31.2937L366.618 30.3703L352.026 2.33826L350.252 3.26173ZM366.618 31.2937L381.21 3.26173L379.436 2.33826L364.844 30.3703L366.618 31.2937ZM380.323 3.8H395.299V1.8H380.323V3.8Z" fill="#20242D"/>
</g>
</svg>
