<svg width="315" height="73" viewBox="0 0 315 73" fill="none" xmlns="http://www.w3.org/2000/svg">
<path opacity="0.3" d="M51.44 70L50.4913 70.3162L50.7192 71H51.44V70ZM47.408 57.904L48.3567 57.5878L48.1288 56.904H47.408V57.904ZM20.624 57.904V56.904H19.9032L19.6753 57.5878L20.624 57.904ZM16.592 70V71H17.3128L17.5407 70.3162L16.592 70ZM2.288 70L1.34414 69.6696L0.878519 71H2.288V70ZM25.808 2.8V1.8H25.0985L24.8641 2.46964L25.808 2.8ZM42.224 2.8L43.1674 2.46844L42.9325 1.8H42.224V2.8ZM65.84 70V71H67.2514L66.7834 69.6684L65.84 70ZM24.848 45.52L23.9 45.2018L23.4575 46.52H24.848V45.52ZM43.28 45.52V46.52H44.6705L44.228 45.2018L43.28 45.52ZM34.064 18.064L35.012 17.7458L34.064 14.9215L33.116 17.7458L34.064 18.064ZM52.3887 69.6838L48.3567 57.5878L46.4593 58.2202L50.4913 70.3162L52.3887 69.6838ZM47.408 56.904H20.624V58.904H47.408V56.904ZM19.6753 57.5878L15.6433 69.6838L17.5407 70.3162L21.5727 58.2202L19.6753 57.5878ZM16.592 69H2.288V71H16.592V69ZM3.23186 70.3304L26.7519 3.13035L24.8641 2.46964L1.34414 69.6696L3.23186 70.3304ZM25.808 3.8H42.224V1.8H25.808V3.8ZM41.2806 3.13155L64.8966 70.3316L66.7834 69.6684L43.1674 2.46844L41.2806 3.13155ZM65.84 69H51.44V71H65.84V69ZM24.848 46.52H43.28V44.52H24.848V46.52ZM44.228 45.2018L35.012 17.7458L33.116 18.3822L42.332 45.8382L44.228 45.2018ZM33.116 17.7458L23.9 45.2018L25.796 45.8382L35.012 18.3822L33.116 17.7458ZM112.973 35.152L112.347 34.3723L111.206 35.2883L112.474 36.0185L112.973 35.152ZM115.757 64.528L115.086 63.7865L115.757 64.528ZM72.365 70H71.365V71H72.365V70ZM72.365 2.8V1.8H71.365V2.8H72.365ZM113.357 8.17599L112.681 8.91265L112.687 8.91841L112.693 8.92407L113.357 8.17599ZM85.613 15.184V14.184H84.613V15.184H85.613ZM85.613 29.968H84.613V30.968H85.613V29.968ZM103.949 27.856L103.242 27.1489L103.234 27.1571L103.226 27.1655L103.949 27.856ZM106.445 55.408L107.152 56.1151L107.16 56.1076L107.167 56.0999L106.445 55.408ZM106.445 44.08L105.723 44.7719L105.73 44.7796L105.738 44.7871L106.445 44.08ZM85.613 41.776V40.776H84.613V41.776H85.613ZM85.613 57.616H84.613V58.616H85.613V57.616ZM112.474 36.0185C118.049 39.2303 120.805 44.0182 120.805 50.512H122.805C122.805 43.3099 119.673 37.8577 113.472 34.2855L112.474 36.0185ZM120.805 50.512C120.805 55.9406 118.898 60.338 115.086 63.7865L116.428 65.2695C120.68 61.422 122.805 56.4754 122.805 50.512H120.805ZM115.086 63.7865C111.254 67.2537 106.539 69 100.877 69V71C106.991 71 112.196 69.0983 116.428 65.2695L115.086 63.7865ZM100.877 69H72.365V71H100.877V69ZM73.365 70V2.8H71.365V70H73.365ZM72.365 3.8H98.861V1.8H72.365V3.8ZM98.861 3.8C104.394 3.8 108.978 5.51337 112.681 8.91265L114.033 7.43934C109.928 3.67062 104.848 1.8 98.861 1.8V3.8ZM112.693 8.92407C116.438 12.2463 118.309 16.4817 118.309 21.712H120.309C120.309 15.9343 118.212 11.1457 114.021 7.42792L112.693 8.92407ZM118.309 21.712C118.309 26.9867 116.327 31.1761 112.347 34.3723L113.599 35.9317C118.067 32.3439 120.309 27.5733 120.309 21.712H118.309ZM98.861 14.184H85.613V16.184H98.861V14.184ZM84.613 15.184V29.968H86.613V15.184H84.613ZM85.613 30.968H98.861V28.968H85.613V30.968ZM98.861 30.968C101.166 30.968 103.129 30.1634 104.672 28.5465L103.226 27.1655C102.081 28.3646 100.652 28.968 98.861 28.968V30.968ZM104.656 28.5631C106.264 26.9553 107.061 24.9354 107.061 22.576H105.061C105.061 24.4406 104.45 25.9407 103.242 27.1489L104.656 28.5631ZM107.061 22.576C107.061 20.2308 106.306 18.2162 104.768 16.6055L103.322 17.9865C104.472 19.1918 105.061 20.6972 105.061 22.576H107.061ZM104.768 16.6055C103.219 14.9819 101.22 14.184 98.861 14.184V16.184C100.726 16.184 102.183 16.7941 103.322 17.9865L104.768 16.6055ZM100.877 58.616C103.36 58.616 105.477 57.7898 107.152 56.1151L105.738 54.7009C104.469 55.9702 102.874 56.616 100.877 56.616V58.616ZM107.167 56.0999C108.833 54.3615 109.653 52.1864 109.653 49.648H107.653C107.653 51.7176 107.001 53.3825 105.723 54.7161L107.167 56.0999ZM109.653 49.648C109.653 47.1651 108.827 45.0476 107.152 43.3729L105.738 44.7871C107.007 46.0564 107.653 47.6509 107.653 49.648H109.653ZM107.167 43.3881C105.495 41.6439 103.373 40.776 100.877 40.776V42.776C102.861 42.776 104.451 43.4441 105.723 44.7719L107.167 43.3881ZM100.877 40.776H85.613V42.776H100.877V40.776ZM84.613 41.776V57.616H86.613V41.776H84.613ZM85.613 58.616H100.877V56.616H85.613V58.616ZM187.034 61.264L187.738 61.9745L187.741 61.9711L187.034 61.264ZM137.498 61.264L136.788 61.9678L136.794 61.9744L137.498 61.264ZM137.498 11.632L136.791 10.9249L137.498 11.632ZM187.034 11.632L186.327 12.3391L186.33 12.3424L187.034 11.632ZM146.81 52.24L146.103 52.9471L146.108 52.9526L146.81 52.24ZM177.722 52.24L178.424 52.9526L178.429 52.9471L177.722 52.24ZM177.722 20.56L178.429 19.8529L177.722 20.56ZM146.81 20.56L146.103 19.8529L146.81 20.56ZM186.33 60.5536C179.737 67.0842 171.736 70.344 162.266 70.344V72.344C172.252 72.344 180.763 68.8838 187.738 61.9744L186.33 60.5536ZM162.266 70.344C152.796 70.344 144.795 67.0842 138.202 60.5536L136.794 61.9744C143.769 68.8838 152.28 72.344 162.266 72.344V70.344ZM138.208 60.5602C131.679 53.9688 128.418 45.9359 128.418 36.4H126.418C126.418 46.4481 129.877 54.9912 136.788 61.9678L138.208 60.5602ZM128.418 36.4C128.418 26.8642 131.679 18.8653 138.205 12.3391L136.791 10.9249C129.877 17.8387 126.418 26.3518 126.418 36.4H128.418ZM138.205 12.3391C144.799 5.74556 152.799 2.456 162.266 2.456V0.455996C152.277 0.455996 143.765 3.95043 136.791 10.9249L138.205 12.3391ZM162.266 2.456C171.733 2.456 179.733 5.74556 186.327 12.3391L187.741 10.9249C180.767 3.95043 172.255 0.455996 162.266 0.455996V2.456ZM186.33 12.3424C192.919 18.8694 196.21 26.8672 196.21 36.4H198.21C198.21 26.3488 194.717 17.8346 187.738 10.9215L186.33 12.3424ZM196.21 36.4C196.21 45.9329 192.919 53.9647 186.327 60.5569L187.741 61.9711C194.717 54.9953 198.21 46.4511 198.21 36.4H196.21ZM146.108 52.9526C150.466 57.2432 155.875 59.384 162.266 59.384V57.384C156.369 57.384 151.474 55.4288 147.512 51.5274L146.108 52.9526ZM162.266 59.384C168.657 59.384 174.066 57.2432 178.424 52.9526L177.02 51.5274C173.058 55.4288 168.163 57.384 162.266 57.384V59.384ZM178.429 52.9471C182.794 48.5822 184.962 43.0395 184.962 36.4H182.962C182.962 42.5605 180.97 47.5778 177.015 51.5329L178.429 52.9471ZM184.962 36.4C184.962 29.7605 182.794 24.2178 178.429 19.8529L177.015 21.2671C180.97 25.2222 182.962 30.2395 182.962 36.4H184.962ZM178.429 19.8529C174.073 15.4963 168.662 13.32 162.266 13.32V15.32C168.158 15.32 173.051 17.3037 177.015 21.2671L178.429 19.8529ZM162.266 13.32C155.87 13.32 150.46 15.4963 146.103 19.8529L147.517 21.2671C151.48 17.3037 156.374 15.32 162.266 15.32V13.32ZM146.103 19.8529C141.738 24.2178 139.57 29.7605 139.57 36.4H141.57C141.57 30.2395 143.562 25.2222 147.517 21.2671L146.103 19.8529ZM139.57 36.4C139.57 43.0395 141.738 48.5822 146.103 52.9471L147.517 51.5329C143.562 47.5778 141.57 42.5605 141.57 36.4H139.57ZM212.676 65.008L212.016 65.7587L212.676 65.008ZM205.477 2.8V1.8H204.477V2.8H205.477ZM218.628 2.8H219.628V1.8H218.628V2.8ZM221.605 55.312L220.886 56.0078L220.892 56.0135L220.897 56.0191L221.605 55.312ZM240.517 55.312L239.809 54.6049L239.804 54.6105L239.798 54.6162L240.517 55.312ZM243.589 2.8V1.8H242.589V2.8H243.589ZM256.837 2.8H257.837V1.8H256.837V2.8ZM249.637 65.008L250.297 65.7587L249.637 65.008ZM231.109 70.344C223.82 70.344 217.924 68.2937 213.337 64.2573L212.016 65.7587C217.029 70.1703 223.421 72.344 231.109 72.344V70.344ZM213.337 64.2573C208.778 60.2455 206.477 54.8683 206.477 48.016H204.477C204.477 55.3717 206.975 61.3225 212.016 65.7587L213.337 64.2573ZM206.477 48.016V2.8H204.477V48.016H206.477ZM205.477 3.8H218.628V1.8H205.477V3.8ZM217.628 2.8V46.96H219.628V2.8H217.628ZM217.628 46.96C217.628 50.6754 218.681 53.7317 220.886 56.0078L222.323 54.6162C220.56 52.7963 219.628 50.2846 219.628 46.96H217.628ZM220.897 56.0191C223.207 58.3284 226.682 59.384 231.109 59.384V57.384C226.959 57.384 224.098 56.3916 222.312 54.6049L220.897 56.0191ZM231.109 59.384C235.532 59.384 238.985 58.3297 241.235 56.0078L239.798 54.6162C238.08 56.3903 235.261 57.384 231.109 57.384V59.384ZM241.224 56.0191C243.498 53.7445 244.589 50.6843 244.589 46.96H242.589C242.589 50.2757 241.631 52.7835 239.809 54.6049L241.224 56.0191ZM244.589 46.96V2.8H242.589V46.96H244.589ZM243.589 3.8H256.837V1.8H243.589V3.8ZM255.837 2.8V48.016H257.837V2.8H255.837ZM255.837 48.016C255.837 54.8683 253.535 60.2455 248.976 64.2573L250.297 65.7587C255.338 61.3225 257.837 55.3717 257.837 48.016H255.837ZM248.976 64.2573C244.391 68.2924 238.464 70.344 231.109 70.344V72.344C238.857 72.344 245.282 70.1716 250.297 65.7587L248.976 64.2573ZM313.219 2.8H314.219V1.8H313.219V2.8ZM313.219 15.472V16.472H314.219V15.472H313.219ZM295.075 15.472V14.472H294.075V15.472H295.075ZM295.075 70V71H296.075V70H295.075ZM281.827 70H280.827V71H281.827V70ZM281.827 15.472H282.827V14.472H281.827V15.472ZM263.779 15.472H262.779V16.472H263.779V15.472ZM263.779 2.8V1.8H262.779V2.8H263.779ZM312.219 2.8V15.472H314.219V2.8H312.219ZM313.219 14.472H295.075V16.472H313.219V14.472ZM294.075 15.472V70H296.075V15.472H294.075ZM295.075 69H281.827V71H295.075V69ZM282.827 70V15.472H280.827V70H282.827ZM281.827 14.472H263.779V16.472H281.827V14.472ZM264.779 15.472V2.8H262.779V15.472H264.779ZM263.779 3.8H313.219V1.8H263.779V3.8Z" fill="white"/>
</svg>
