<svg width="210" height="73" viewBox="0 0 210 73" fill="none" xmlns="http://www.w3.org/2000/svg">
<path opacity="0.1" d="M1.24 2.8V1.8H0.240001V2.8H1.24ZM14.488 2.8H15.488V1.8H14.488V2.8ZM14.488 70V71H15.488V70H14.488ZM1.24 70H0.240001V71H1.24V70ZM1.24 3.8H14.488V1.8H1.24V3.8ZM13.488 2.8V70H15.488V2.8H13.488ZM14.488 69H1.24V71H14.488V69ZM2.24 70V2.8H0.240001V70H2.24ZM65.8075 2.8V1.8H64.8075V2.8H65.8075ZM79.0555 2.8H80.0555V1.8H79.0555V2.8ZM79.0555 70V71H80.0555V70H79.0555ZM68.9755 70L68.1566 70.574L68.4552 71H68.9755V70ZM40.1755 28.912L40.9944 28.338L39.1755 25.7431V28.912H40.1755ZM40.1755 70V71H41.1755V70H40.1755ZM26.9275 70H25.9275V71H26.9275V70ZM26.9275 2.8V1.8H25.9275V2.8H26.9275ZM37.0075 2.8L37.8257 2.22512L37.5271 1.8H37.0075V2.8ZM65.8075 43.792L64.9893 44.3669L66.8075 46.9548V43.792H65.8075ZM65.8075 3.8H79.0555V1.8H65.8075V3.8ZM78.0555 2.8V70H80.0555V2.8H78.0555ZM79.0555 69H68.9755V71H79.0555V69ZM69.7944 69.426L40.9944 28.338L39.3566 29.486L68.1566 70.574L69.7944 69.426ZM39.1755 28.912V70H41.1755V28.912H39.1755ZM40.1755 69H26.9275V71H40.1755V69ZM27.9275 70V2.8H25.9275V70H27.9275ZM26.9275 3.8H37.0075V1.8H26.9275V3.8ZM36.1893 3.37487L64.9893 44.3669L66.6257 43.2171L37.8257 2.22512L36.1893 3.37487ZM66.8075 43.792V2.8H64.8075V43.792H66.8075ZM131.649 15.472V16.472H132.649V15.472H131.649ZM104.769 15.472V14.472H103.769V15.472H104.769ZM104.769 31.408H103.769V32.408H104.769V31.408ZM130.881 31.408H131.881V30.408H130.881V31.408ZM130.881 44.08V45.08H131.881V44.08H130.881ZM104.769 44.08V43.08H103.769V44.08H104.769ZM104.769 70V71H105.769V70H104.769ZM91.5212 70H90.5212V71H91.5212V70ZM91.5212 2.8V1.8H90.5212V2.8H91.5212ZM131.649 2.8H132.649V1.8H131.649V2.8ZM131.649 14.472H104.769V16.472H131.649V14.472ZM103.769 15.472V31.408H105.769V15.472H103.769ZM104.769 32.408H130.881V30.408H104.769V32.408ZM129.881 31.408V44.08H131.881V31.408H129.881ZM130.881 43.08H104.769V45.08H130.881V43.08ZM103.769 44.08V70H105.769V44.08H103.769ZM104.769 69H91.5212V71H104.769V69ZM92.5212 70V2.8H90.5212V70H92.5212ZM91.5212 3.8H131.649V1.8H91.5212V3.8ZM130.649 2.8V15.472H132.649V2.8H130.649ZM197.846 61.264L198.55 61.9745L198.554 61.9711L197.846 61.264ZM148.311 61.264L147.6 61.9678L147.607 61.9744L148.311 61.264ZM148.311 11.632L147.603 10.9249L148.311 11.632ZM197.846 11.632L197.139 12.3391L197.143 12.3424L197.846 11.632ZM157.622 52.24L156.915 52.9471L156.921 52.9526L157.622 52.24ZM188.535 52.24L189.236 52.9526L189.242 52.9471L188.535 52.24ZM188.535 20.56L189.242 19.8529L188.535 20.56ZM157.622 20.56L156.915 19.8529L157.622 20.56ZM197.143 60.5536C190.55 67.0842 182.548 70.344 173.079 70.344V72.344C183.065 72.344 191.575 68.8838 198.55 61.9744L197.143 60.5536ZM173.079 70.344C163.609 70.344 155.607 67.0842 149.014 60.5536L147.607 61.9744C154.582 68.8838 163.092 72.344 173.079 72.344V70.344ZM149.021 60.5602C142.492 53.9688 139.23 45.9359 139.23 36.4H137.23C137.23 46.4481 140.689 54.9912 147.6 61.9678L149.021 60.5602ZM139.23 36.4C139.23 26.8642 142.491 18.8653 149.018 12.3391L147.603 10.9249C140.69 17.8387 137.23 26.3518 137.23 36.4H139.23ZM149.018 12.3391C155.611 5.74556 163.612 2.456 173.079 2.456V0.455996C163.089 0.455996 154.578 3.95043 147.603 10.9249L149.018 12.3391ZM173.079 2.456C182.545 2.456 190.546 5.74556 197.139 12.3391L198.554 10.9249C191.579 3.95043 183.068 0.455996 173.079 0.455996V2.456ZM197.143 12.3424C203.732 18.8694 207.023 26.8672 207.023 36.4H209.023C209.023 26.3488 205.529 17.8346 198.55 10.9215L197.143 12.3424ZM207.023 36.4C207.023 45.9329 203.732 53.9647 197.139 60.5569L198.554 61.9711C205.529 54.9953 209.023 46.4511 209.023 36.4H207.023ZM156.921 52.9526C161.279 57.2432 166.687 59.384 173.079 59.384V57.384C167.182 57.384 162.286 55.4288 158.324 51.5274L156.921 52.9526ZM173.079 59.384C179.47 59.384 184.878 57.2432 189.236 52.9526L187.833 51.5274C183.871 55.4288 178.975 57.384 173.079 57.384V59.384ZM189.242 52.9471C193.607 48.5822 195.775 43.0395 195.775 36.4H193.775C193.775 42.5605 191.782 47.5778 187.827 51.5329L189.242 52.9471ZM195.775 36.4C195.775 29.7605 193.607 24.2178 189.242 19.8529L187.827 21.2671C191.782 25.2222 193.775 30.2395 193.775 36.4H195.775ZM189.242 19.8529C184.885 15.4963 179.475 13.32 173.079 13.32V15.32C178.97 15.32 183.864 17.3037 187.827 21.2671L189.242 19.8529ZM173.079 13.32C166.682 13.32 161.272 15.4963 156.915 19.8529L158.33 21.2671C162.293 17.3037 167.187 15.32 173.079 15.32V13.32ZM156.915 19.8529C152.55 24.2178 150.383 29.7605 150.383 36.4H152.383C152.383 30.2395 154.375 25.2222 158.33 21.2671L156.915 19.8529ZM150.383 36.4C150.383 43.0395 152.55 48.5822 156.915 52.9471L158.33 51.5329C154.375 47.5778 152.383 42.5605 152.383 36.4H150.383Z" fill="#20242D"/>
</svg>
